<mxfile host="app.diagrams.net" modified="2023-10-16T02:05:05.974Z" agent="Mozilla/5.0 (Windows NT 10.0; Win64; x64; rv:109.0) Gecko/20100101 Firefox/118.0" etag="L8SmGnt1UjFcMNs6VTLd" version="22.0.4" type="github">
  <diagram id="C5RBs43oDa-KdzZeNtuy" name="Page-1">
    <mxGraphModel dx="880" dy="1639" grid="1" gridSize="10" guides="1" tooltips="1" connect="1" arrows="1" fold="1" page="1" pageScale="1" pageWidth="827" pageHeight="1169" math="0" shadow="0">
      <root>
        <mxCell id="WIyWlLk6GJQsqaUBKTNV-0" />
        <mxCell id="WIyWlLk6GJQsqaUBKTNV-1" parent="WIyWlLk6GJQsqaUBKTNV-0" />
        <mxCell id="IIC7j5K11LUe31Rnxvh0-0" value="" style="edgeStyle=orthogonalEdgeStyle;rounded=0;orthogonalLoop=1;jettySize=auto;html=1;" edge="1" parent="WIyWlLk6GJQsqaUBKTNV-1" source="IIC7j5K11LUe31Rnxvh0-1" target="IIC7j5K11LUe31Rnxvh0-3">
          <mxGeometry relative="1" as="geometry" />
        </mxCell>
        <mxCell id="IIC7j5K11LUe31Rnxvh0-1" value="MULAI" style="strokeWidth=2;html=1;shape=mxgraph.flowchart.start_1;whiteSpace=wrap;" vertex="1" parent="WIyWlLk6GJQsqaUBKTNV-1">
          <mxGeometry x="364" y="-420" width="100" height="60" as="geometry" />
        </mxCell>
        <mxCell id="IIC7j5K11LUe31Rnxvh0-2" value="" style="edgeStyle=orthogonalEdgeStyle;rounded=0;orthogonalLoop=1;jettySize=auto;html=1;" edge="1" parent="WIyWlLk6GJQsqaUBKTNV-1" source="IIC7j5K11LUe31Rnxvh0-3" target="IIC7j5K11LUe31Rnxvh0-5">
          <mxGeometry relative="1" as="geometry" />
        </mxCell>
        <mxCell id="IIC7j5K11LUe31Rnxvh0-3" value="menetapkan bilangan ganjil dan genap" style="shape=parallelogram;html=1;strokeWidth=2;perimeter=parallelogramPerimeter;whiteSpace=wrap;rounded=1;arcSize=12;size=0.23;" vertex="1" parent="WIyWlLk6GJQsqaUBKTNV-1">
          <mxGeometry x="330" y="-330" width="148.5" height="70" as="geometry" />
        </mxCell>
        <mxCell id="IIC7j5K11LUe31Rnxvh0-4" value="" style="edgeStyle=orthogonalEdgeStyle;rounded=0;orthogonalLoop=1;jettySize=auto;html=1;" edge="1" parent="WIyWlLk6GJQsqaUBKTNV-1" source="IIC7j5K11LUe31Rnxvh0-5" target="IIC7j5K11LUe31Rnxvh0-10">
          <mxGeometry relative="1" as="geometry" />
        </mxCell>
        <mxCell id="IIC7j5K11LUe31Rnxvh0-5" value="dibagi 2" style="rounded=1;whiteSpace=wrap;html=1;absoluteArcSize=1;arcSize=14;strokeWidth=2;" vertex="1" parent="WIyWlLk6GJQsqaUBKTNV-1">
          <mxGeometry x="364" y="-210" width="100" height="100" as="geometry" />
        </mxCell>
        <mxCell id="IIC7j5K11LUe31Rnxvh0-6" value="" style="edgeStyle=orthogonalEdgeStyle;rounded=0;orthogonalLoop=1;jettySize=auto;html=1;" edge="1" parent="WIyWlLk6GJQsqaUBKTNV-1" source="IIC7j5K11LUe31Rnxvh0-10" target="IIC7j5K11LUe31Rnxvh0-11">
          <mxGeometry relative="1" as="geometry" />
        </mxCell>
        <mxCell id="IIC7j5K11LUe31Rnxvh0-7" value="bisa" style="edgeLabel;html=1;align=center;verticalAlign=middle;resizable=0;points=[];" vertex="1" connectable="0" parent="IIC7j5K11LUe31Rnxvh0-6">
          <mxGeometry x="-0.4196" y="-1" relative="1" as="geometry">
            <mxPoint as="offset" />
          </mxGeometry>
        </mxCell>
        <mxCell id="IIC7j5K11LUe31Rnxvh0-8" value="" style="edgeStyle=orthogonalEdgeStyle;rounded=0;orthogonalLoop=1;jettySize=auto;html=1;" edge="1" parent="WIyWlLk6GJQsqaUBKTNV-1" source="IIC7j5K11LUe31Rnxvh0-10" target="IIC7j5K11LUe31Rnxvh0-13">
          <mxGeometry relative="1" as="geometry" />
        </mxCell>
        <mxCell id="IIC7j5K11LUe31Rnxvh0-9" value="tidak bisa" style="edgeLabel;html=1;align=center;verticalAlign=middle;resizable=0;points=[];" vertex="1" connectable="0" parent="IIC7j5K11LUe31Rnxvh0-8">
          <mxGeometry relative="1" as="geometry">
            <mxPoint as="offset" />
          </mxGeometry>
        </mxCell>
        <mxCell id="IIC7j5K11LUe31Rnxvh0-10" value="bilangan dibagi dengan 2" style="strokeWidth=2;html=1;shape=mxgraph.flowchart.decision;whiteSpace=wrap;" vertex="1" parent="WIyWlLk6GJQsqaUBKTNV-1">
          <mxGeometry x="364" y="-80" width="100" height="100" as="geometry" />
        </mxCell>
        <mxCell id="IIC7j5K11LUe31Rnxvh0-11" value="genap" style="shape=parallelogram;html=1;strokeWidth=2;perimeter=parallelogramPerimeter;whiteSpace=wrap;rounded=1;arcSize=12;size=0.23;" vertex="1" parent="WIyWlLk6GJQsqaUBKTNV-1">
          <mxGeometry x="560" y="-40" width="100" height="60" as="geometry" />
        </mxCell>
        <mxCell id="IIC7j5K11LUe31Rnxvh0-12" value="" style="edgeStyle=orthogonalEdgeStyle;rounded=0;orthogonalLoop=1;jettySize=auto;html=1;" edge="1" parent="WIyWlLk6GJQsqaUBKTNV-1" source="IIC7j5K11LUe31Rnxvh0-13" target="IIC7j5K11LUe31Rnxvh0-14">
          <mxGeometry relative="1" as="geometry" />
        </mxCell>
        <mxCell id="IIC7j5K11LUe31Rnxvh0-13" value="ganjil" style="shape=parallelogram;html=1;strokeWidth=2;perimeter=parallelogramPerimeter;whiteSpace=wrap;rounded=1;arcSize=12;size=0.23;" vertex="1" parent="WIyWlLk6GJQsqaUBKTNV-1">
          <mxGeometry x="364" y="90" width="100" height="60" as="geometry" />
        </mxCell>
        <mxCell id="IIC7j5K11LUe31Rnxvh0-14" value="SELESAI" style="strokeWidth=2;html=1;shape=mxgraph.flowchart.start_1;whiteSpace=wrap;" vertex="1" parent="WIyWlLk6GJQsqaUBKTNV-1">
          <mxGeometry x="370" y="190" width="100" height="60" as="geometry" />
        </mxCell>
        <mxCell id="IIC7j5K11LUe31Rnxvh0-15" style="edgeStyle=orthogonalEdgeStyle;rounded=0;orthogonalLoop=1;jettySize=auto;html=1;exitX=1;exitY=0.5;exitDx=0;exitDy=0;entryX=1;entryY=0.5;entryDx=0;entryDy=0;entryPerimeter=0;" edge="1" parent="WIyWlLk6GJQsqaUBKTNV-1" source="IIC7j5K11LUe31Rnxvh0-11" target="IIC7j5K11LUe31Rnxvh0-14">
          <mxGeometry relative="1" as="geometry">
            <Array as="points">
              <mxPoint x="690" y="-10" />
              <mxPoint x="690" y="220" />
            </Array>
          </mxGeometry>
        </mxCell>
      </root>
    </mxGraphModel>
  </diagram>
</mxfile>
